<?xml version="1.0" standalone="no"?>
<!DOCTYPE svg PUBLIC "-//W3C//DTD SVG 20010904//EN"
 "http://www.w3.org/TR/2001/REC-SVG-20010904/DTD/svg10.dtd">
<svg version="1.0" xmlns="http://www.w3.org/2000/svg"
 width="700.000000pt" height="700.000000pt" viewBox="0 0 700.000000 700.000000"
 preserveAspectRatio="xMidYMid meet">
<metadata>
Created by potrace 1.11, written by Peter Selinger 2001-2013
</metadata>
<g transform="translate(0.000000,700.000000) scale(0.100000,-0.100000)"
fill="#000000" stroke="none">
<path d="M3195 6989 c-1819 -171 -3195 -1673 -3195 -3489 0 -1235 643 -2368
1705 -3005 921 -552 2069 -649 3064 -259 1610 632 2518 2327 2150 4014 -309
1418 -1484 2512 -2914 2714 -252 36 -584 46 -810 25z m2905 -2710 c30 -6 112
-38 181 -71 74 -35 136 -58 150 -56 14 2 32 17 46 38 36 58 61 85 69 78 4 -4
2 -38 -5 -75 -7 -38 -15 -168 -18 -290 -4 -166 -9 -227 -19 -240 -13 -17 -15
-17 -28 0 -7 9 -21 56 -31 104 -54 272 -166 415 -368 469 -80 21 -232 18 -311
-6 -184 -57 -332 -267 -398 -565 -29 -132 -36 -449 -14 -605 34 -228 106 -390
231 -516 119 -120 222 -164 391 -164 112 0 195 23 280 78 123 79 200 205 255
417 34 131 46 156 64 132 7 -10 8 -49 2 -123 -4 -60 -5 -204 -2 -321 7 -257 1
-269 -68 -139 -44 83 -53 86 -113 43 -131 -93 -252 -129 -434 -129 -255 -1
-452 77 -632 250 -216 207 -320 514 -288 849 25 271 106 453 279 623 138 137
281 206 471 229 84 11 226 6 310 -10z m-5077 2 c19 -1 23 -26 6 -36 -5 -4 -52
-11 -103 -15 -108 -9 -136 -21 -136 -55 0 -44 181 -561 434 -1240 65 -176 75
-197 84 -175 5 14 66 170 135 347 l125 322 -138 366 c-76 201 -145 377 -154
390 -23 35 -48 46 -127 52 -69 6 -90 16 -71 35 13 13 1212 12 1225 -1 19 -19
-2 -25 -111 -32 -140 -9 -163 -18 -195 -77 -28 -51 -227 -536 -227 -552 0 -5
58 -155 128 -332 71 -178 146 -368 167 -422 25 -65 40 -94 45 -85 12 21 428
1232 458 1332 23 79 24 89 10 103 -19 20 -78 33 -144 34 -27 0 -59 6 -70 14
-18 14 -18 15 11 26 17 6 48 9 72 5 22 -3 223 -6 445 -6 221 1 421 -2 443 -5
l40 -6 84 -216 c46 -120 160 -426 253 -682 94 -256 174 -472 178 -480 8 -13 9
-13 14 0 40 114 406 1288 421 1351 l7 27 212 7 c229 8 314 2 323 -22 9 -23
-16 -33 -84 -33 -77 0 -141 -24 -154 -57 -5 -14 -9 -377 -9 -868 0 -799 1
-844 18 -865 16 -20 31 -23 125 -29 114 -8 151 -22 103 -41 -38 -14 -725 -14
-763 1 -27 10 -27 11 -9 25 13 9 45 14 90 14 86 0 142 14 156 40 6 12 10 297
9 817 l0 798 -38 -115 c-137 -415 -314 -975 -381 -1207 -94 -322 -104 -350
-124 -333 -8 6 -25 42 -37 78 -38 118 -182 514 -367 1012 -98 267 -182 492
-185 500 -3 8 -6 -335 -6 -762 l-1 -777 30 -16 c16 -8 53 -16 82 -16 77 -2
112 -12 116 -32 5 -27 -40 -39 -96 -26 -32 7 -103 8 -217 3 -199 -9 -223 -9
-232 0 -16 16 23 29 111 35 52 4 102 13 110 21 14 11 16 107 16 877 l0 865
-28 28 c-33 33 -94 44 -238 43 -113 0 -159 -19 -191 -78 -12 -23 -67 -173
-122 -335 -54 -162 -157 -459 -229 -660 -71 -201 -164 -470 -207 -597 -51
-156 -81 -233 -91 -233 -26 0 -34 19 -215 495 -162 428 -193 505 -199 505 -7
0 -189 -452 -318 -789 -43 -113 -83 -206 -89 -208 -15 -5 -166 385 -550 1427
-147 401 -166 445 -191 455 -9 4 -52 11 -94 15 -42 5 -87 14 -99 21 -55 29 1
34 372 33 200 -1 372 -2 382 -3z"/>
<path d="M1581 4213 l-21 -18 78 -237 c42 -130 80 -240 84 -243 8 -8 13 3 119
264 43 106 79 200 79 208 0 29 -64 43 -194 43 -103 0 -127 -3 -145 -17z"/>
</g>
</svg>
